<?xml version="1.0" encoding="utf-8"?>
<!-- Generator: Adobe Illustrator 24.1.2, SVG Export Plug-In . SVG Version: 6.00 Build 0)  -->
<svg version="1.1" id="Capa_1" xmlns="http://www.w3.org/2000/svg" xmlns:xlink="http://www.w3.org/1999/xlink" x="0px" y="0px"
	 viewBox="0 0 72 72" style="enable-background:new 0 0 72 72;" xml:space="preserve">
<style type="text/css">
	.st0{fill:#FFFFFF;}
</style>
<g>
	<path d="M36,8.7c-6.5,0-12,4-15.3,9c-3.4,5-5.1,11.4-5.1,18.2s1.8,13.2,5.1,18.2s8.8,9,15.3,9s12-4,15.3-9c3.4-5,5.1-11.4,5.1-18.2
		s-1.8-13.2-5.1-18.2C48,12.7,42.5,8.7,36,8.7z"/>
	<path class="st0" d="M36,22.4c1,0,2.4,0.6,4,3c1.6,2.4,2.8,6.3,2.8,10.7s-1.3,8.3-2.8,10.7s-3,3-4,3c-1,0-2.4-0.6-4-3
		c-1.6-2.4-2.8-6.3-2.8-10.7s1.3-8.3,2.8-10.7C33.6,23,35,22.4,36,22.4z"/>
</g>
</svg>
