<?xml version="1.0" encoding="utf-8"?>
<!-- Generator: Adobe Illustrator 24.1.2, SVG Export Plug-In . SVG Version: 6.00 Build 0)  -->
<svg version="1.1" id="Capa_1" xmlns="http://www.w3.org/2000/svg" xmlns:xlink="http://www.w3.org/1999/xlink" x="0px" y="0px"
	 viewBox="0 0 72 72" style="enable-background:new 0 0 72 72;" xml:space="preserve">
<style type="text/css">
	.st0{fill:#FFFFFF;}
</style>
<path d="M19.6,11.5c-4.5,0-8.1,3.6-8.1,8.1c0,2.2,0.9,4.3,2.5,5.8L24.5,36L14,46.5c-3.2,3.1-3.3,8.3-0.1,11.5
	c3.1,3.2,8.3,3.3,11.5,0.1c0,0,0.1-0.1,0.1-0.1L36,47.5L46.5,58c3.1,3.2,8.3,3.3,11.5,0.1c3.2-3.1,3.3-8.3,0.1-11.5
	c0,0-0.1-0.1-0.1-0.1L47.5,36L58,25.5c3.2-3.1,3.3-8.3,0.2-11.5c-1.6-1.6-3.8-2.5-6.1-2.5C50,11.6,48,12.5,46.5,14L36,24.5L25.5,14
	C23.9,12.4,21.8,11.5,19.6,11.5L19.6,11.5z"/>
</svg>
